<svg width="24" height="24" viewBox="0 0 24 24" fill="none" xmlns="http://www.w3.org/2000/svg">
<path d="M8.87401 22.4716C8.68894 22.4141 8.50256 22.3606 8.31933 22.2983C7.37378 21.9765 6.50935 21.5082 5.75831 20.8459C4.73375 19.9423 4.02787 18.8511 3.80579 17.4798C3.70393 16.8505 3.75617 16.2252 3.84569 15.6007C3.91998 15.0815 4.02603 14.5678 4.13077 14.0538C4.13891 14.0139 4.13051 13.9485 4.18353 13.9477C4.23814 13.9467 4.22842 14.0149 4.23892 14.0527C4.36414 14.5029 4.47518 14.9576 4.6676 15.3865C4.90543 15.9163 5.22096 16.3877 5.67589 16.7571C5.71159 16.786 5.74151 16.8274 5.80767 16.8267C5.74204 16.5607 5.6814 16.2985 5.61262 16.0383C5.31967 14.9285 5.46404 13.8658 5.94417 12.8355C6.15654 12.38 6.35867 11.9199 6.5356 11.4489C6.75978 10.8523 6.84247 10.2406 6.7393 9.60771C6.7288 9.54418 6.72697 9.47908 6.72066 9.40899C6.79548 9.40479 6.82068 9.45834 6.85192 9.49378C7.37326 10.0839 7.66805 10.7667 7.7111 11.5584C7.73735 12.0443 7.67173 12.5268 7.68144 13.0119C7.68617 13.2555 7.73158 13.4897 7.81716 13.7162C7.92898 14.0118 8.18519 14.2045 8.46581 14.2102C8.81862 14.2176 9.05987 13.948 9.0932 13.5248C9.14413 12.8785 9.03414 12.2551 8.85222 11.6385C8.70496 11.1402 8.54929 10.6441 8.47579 10.1262C8.38312 9.47488 8.47789 8.85484 8.75221 8.26052C9.03834 7.64048 9.44706 7.09945 9.85815 6.56053C10.3091 5.96962 10.7599 5.37925 11.1058 4.7172C11.4156 4.12473 11.6012 3.4976 11.6608 2.83135C11.697 2.42473 11.6876 2.01968 11.6456 1.61463C11.6421 1.5813 11.6272 1.53746 11.6637 1.51882C11.7062 1.49729 11.7225 1.54559 11.7429 1.56948C12.521 2.48143 13.0699 3.4976 13.1544 4.7193C13.2012 5.39526 13.0865 6.05126 12.8948 6.69756C12.7644 7.13726 12.6258 7.57643 12.5782 8.03503C12.4992 8.79709 12.6911 9.48171 13.1888 10.0729C13.1936 10.0786 13.2038 10.08 13.223 10.0881C13.2403 9.90828 13.2513 9.73135 13.2752 9.55626C13.3694 8.86193 13.6866 8.2621 14.0785 7.6964C14.3029 7.37246 14.5612 7.07583 14.8403 6.79757C14.8649 6.7729 14.8865 6.71698 14.9314 6.74796C14.9639 6.77027 14.9327 6.81332 14.9235 6.84509C14.7917 7.28977 14.6759 7.73787 14.6279 8.20067C14.5436 9.01497 14.7069 9.77204 15.1424 10.4703C15.3487 10.8013 15.5887 11.1074 15.8194 11.4203C16.1917 11.9249 16.3969 12.4887 16.4095 13.1138C16.4195 13.6159 16.3087 14.1029 16.1662 14.5822C16.0255 15.0555 15.8848 15.5288 15.7446 16.0021C15.7315 16.0467 15.721 16.0924 15.722 16.1454C15.9016 16.0376 16.0397 15.8895 16.173 15.7367C16.6715 15.1655 16.9416 14.484 17.1351 13.7629C17.3981 12.7822 17.9363 11.976 18.7094 11.3232C18.7411 11.2964 18.7703 11.2586 18.8304 11.2654C18.8283 11.356 18.7794 11.4306 18.7503 11.5098C18.5348 12.0942 18.4156 12.6945 18.4484 13.3198C18.4755 13.8346 18.6122 14.3281 18.749 14.8208C18.9013 15.369 19.0399 15.9184 19.0648 16.4909C19.0945 17.1732 18.9338 17.8171 18.6894 18.4458C18.68 18.4702 18.6713 18.4946 18.6616 18.5206C18.8511 18.4996 19.3263 18.0856 19.6019 17.6866C19.8431 17.3375 20.0292 16.9582 20.2004 16.5731C20.2626 16.5891 20.2482 16.6308 20.2484 16.6618C20.2574 17.6599 20.0988 18.6225 19.6163 19.51C19.2709 20.1458 18.7813 20.6606 18.2174 21.1068C17.374 21.7749 16.4129 22.2002 15.3779 22.4695C15.3451 22.4782 15.3023 22.5021 15.2792 22.4713C15.2469 22.4288 15.2968 22.4018 15.3199 22.3745C15.8236 21.777 16.1397 21.0976 16.2116 20.3141C16.2428 19.9731 16.2224 19.6344 16.1418 19.2601C16.084 19.3982 16.0423 19.5037 15.9961 19.6074C15.6811 20.3172 15.2262 20.9055 14.5321 21.284C14.4953 21.304 14.4539 21.3502 14.4145 21.3226C14.3651 21.2885 14.4024 21.2328 14.4163 21.1906C14.547 20.7929 14.6153 20.3834 14.62 19.9665C14.6255 19.4756 14.5155 19.0036 14.3321 18.5495C14.1281 18.0449 13.9593 17.5331 13.9294 16.9828C13.917 16.7542 13.9367 16.5292 13.9559 16.303C13.9598 16.2573 13.9819 16.2105 13.9488 16.1578C13.859 16.214 13.8105 16.3037 13.7517 16.3814C13.2789 17.0067 13.0127 17.7142 12.9234 18.4909C12.9171 18.5453 12.9311 18.6254 12.878 18.6456C12.8114 18.6708 12.778 18.5899 12.7386 18.5484C12.2257 18.0048 11.9259 17.3706 11.9564 16.6106C11.975 16.1449 12.1094 15.6992 12.2296 15.2516C12.3727 14.7198 12.5016 14.1856 12.5068 13.6285C12.5155 12.721 12.2149 11.9146 11.7191 11.1707C11.6078 11.0037 11.4954 10.8365 11.3358 10.6577C11.3681 10.7942 11.3951 10.8987 11.4169 11.0042C11.6162 11.9658 11.5794 12.9037 11.1544 13.8089C10.8877 14.3767 10.5386 14.8957 10.2233 15.4348C9.79016 16.1759 9.44129 16.9498 9.28982 17.8003C9.13599 18.6637 9.17064 19.5229 9.37067 20.3763C9.38511 20.4377 9.43473 20.5225 9.38406 20.5598C9.32841 20.6007 9.26935 20.5201 9.21763 20.486C8.54535 20.0408 8.1214 19.4084 7.85102 18.6613C7.82739 18.5959 7.80561 18.5298 7.77279 18.435C7.63734 18.9325 7.61161 19.4116 7.63419 19.894C7.65755 20.3897 7.78198 20.8601 8.00984 21.3016C8.23349 21.7353 8.54168 22.1054 8.89422 22.4419C8.8874 22.4511 8.88084 22.4614 8.87401 22.4716Z" fill="black"/>
</svg>
