<svg width="24" height="24" viewBox="0 0 24 24" fill="none" xmlns="http://www.w3.org/2000/svg">
<path d="M6.70478 12.3122C6.67855 12.4112 6.65321 12.4923 6.63565 12.575C6.55919 12.9382 6.37093 13.2373 6.11799 13.5027C5.93173 13.6983 5.71569 13.863 5.5441 14.0739C5.29138 14.3847 5.18936 14.7259 5.30449 15.1195C5.31361 15.1508 5.34628 15.1944 5.29916 15.2177C5.26293 15.2357 5.24115 15.1937 5.21848 15.1719C5.02244 14.9817 4.9322 14.7463 4.92064 14.476C4.91375 14.3162 4.93664 14.1584 4.94087 13.9995C4.95176 13.5952 4.90108 13.1942 4.86707 12.793C4.83529 12.416 4.8813 12.0558 5.01577 11.7026C4.91686 11.743 4.91775 11.6843 4.92975 11.6166C4.97398 11.3658 5.08245 11.1473 5.25471 10.9593C5.44541 10.751 5.6759 10.587 5.87972 10.3934C5.91995 10.3552 5.9613 10.3181 6.00086 10.2794C6.01375 10.2667 6.03598 10.246 6.03264 10.2367C5.97997 10.0907 6.10955 10.0405 6.18223 9.97466C6.62276 9.57369 7.12709 9.49612 7.67676 9.71083C7.83145 9.77129 7.97837 9.85175 8.11885 9.94221C8.16197 9.96977 8.20953 9.99467 8.25865 10.0082C8.68429 10.1254 9.00147 10.3934 9.27553 10.7257C9.60159 11.1209 9.84008 11.5661 10.0352 12.0366C10.0419 12.0529 10.0492 12.0689 10.0659 12.108C10.0917 11.6901 10.1084 11.2963 10.0879 10.9031C10.071 10.5779 10.0775 10.2525 10.0546 9.92732C10.0106 9.30408 9.97345 8.67995 9.94633 8.0556C9.91677 7.37569 9.89632 6.69555 9.95389 6.01519C10.001 5.45752 10.0706 4.90452 10.2044 4.36041C10.3858 3.6227 10.6683 2.93034 11.1446 2.33155C11.6211 1.73143 12.2303 1.34157 12.9992 1.23444C13.7767 1.12619 14.4628 1.34046 15.0618 1.84412C15.6304 2.32199 15.9631 2.95101 16.2143 3.63293C16.3178 3.91409 16.4123 4.19837 16.559 4.46221C16.6295 4.58912 16.7128 4.65913 16.8686 4.66803C17.2203 4.68825 17.543 4.82939 17.8699 4.94675C18.0822 5.02276 18.2927 5.10411 18.4887 5.21925C18.7706 5.38484 18.9651 5.62511 19.0997 5.91806C19.1129 5.94651 19.1429 5.98407 19.112 6.00941C19.0715 6.04253 19.046 5.9943 19.022 5.97162C18.8459 5.8047 18.6568 5.66045 18.4241 5.57799C18.3007 5.5342 18.1767 5.50242 18.0471 5.49153C17.8259 5.47308 17.6086 5.43463 17.3925 5.3755C17.4579 5.44085 17.5354 5.4853 17.615 5.52776C17.8699 5.66356 18.1193 5.80692 18.3351 6.00363C18.7679 6.39771 19.0108 6.89448 19.1391 7.45615C19.2215 7.81778 19.3111 8.17696 19.5298 8.48702C19.6634 8.67662 19.8188 8.84132 20.0275 8.95179C20.1693 9.02691 20.1786 9.10337 20.0635 9.21473C19.7814 9.4879 19.1855 9.60525 18.8395 9.19761C18.8088 9.16138 18.7763 9.12649 18.7328 9.09648C18.7517 9.19495 18.7857 9.28741 18.8417 9.37009C18.9039 9.46189 18.9762 9.54702 19.0368 9.6397C19.1653 9.83597 19.2524 10.0433 19.2022 10.2876C19.1398 10.5915 18.8415 10.7959 18.5396 10.737C18.5147 10.7321 18.4836 10.7357 18.4721 10.7075C18.4567 10.6695 18.4934 10.6572 18.5141 10.639C18.713 10.465 18.731 10.3241 18.5996 10.0942C18.4836 9.89109 18.2894 9.77995 18.1067 9.65637C17.6843 9.37098 17.4607 8.98824 17.4852 8.46858C17.4932 8.29632 17.5452 8.13406 17.5681 7.96581C17.6443 7.40658 17.6177 6.85625 17.401 6.32947C17.2652 5.99896 17.0718 5.70313 16.7617 5.45596C16.908 5.67512 17.0235 5.87605 17.1191 6.08743C17.4461 6.81135 17.5261 7.55706 17.308 8.32699C17.24 8.56726 17.1187 8.77842 16.9342 8.94667C16.7671 9.09915 16.6419 9.27896 16.5452 9.481C16.3959 9.79285 16.1587 10.0078 15.8371 10.1342C15.5959 10.2289 15.3534 10.3223 15.1756 10.5263C15.0349 10.6879 14.9473 10.8617 15.0096 11.0836C15.0365 11.1794 14.9709 11.1796 14.9067 11.1709C14.7375 11.148 14.575 10.9791 14.5226 10.7808C14.4779 10.6126 14.5066 10.4503 14.5546 10.2894C14.6211 10.0665 14.7455 9.87353 14.872 9.68171C15.1236 9.30008 15.2238 8.8771 15.1956 8.42501C15.1738 8.07627 15.1809 7.72954 15.237 7.38524C15.3234 6.85314 15.5335 6.36393 15.7704 5.88472C15.7857 5.8536 15.8149 5.82604 15.8057 5.77336C15.5397 6.0932 15.3368 6.43772 15.1974 6.81957C15.0149 7.31945 14.9805 7.83645 15.0223 8.36211C15.06 8.83887 14.9613 9.28163 14.6871 9.67971C14.5273 9.91154 14.4139 10.1625 14.3841 10.4456C14.3786 10.4979 14.3554 10.5359 14.3108 10.5626C13.9945 10.7517 13.6695 10.7755 13.3381 10.6068C13.1745 10.5234 13.163 10.427 13.3039 10.3141C13.6871 10.0067 13.8411 9.59125 13.8693 9.11871C13.886 8.83754 13.8458 8.55748 13.8345 8.27676C13.8151 7.79711 13.9136 7.34413 14.1459 6.92048C14.3268 6.59042 14.5715 6.31703 14.862 6.08209C15.0236 5.9514 15.1778 5.81426 15.2919 5.63467C15.1545 5.7398 15.0147 5.8416 14.8656 5.92828C14.5837 6.09209 14.2781 6.18767 13.9551 6.22968C13.9274 6.23323 13.8907 6.24235 13.8807 6.20323C13.8727 6.17211 13.904 6.15922 13.9256 6.14721C14.199 5.99541 14.381 5.75091 14.5664 5.51153C14.8035 5.20569 15.092 4.98076 15.4819 4.91252C15.5797 4.8954 15.6146 4.84451 15.6299 4.75138C15.6735 4.48821 15.623 4.23483 15.5601 3.98322C15.4363 3.48934 15.2338 3.02925 14.916 2.62961C14.4821 2.08417 13.9258 1.77721 13.2114 1.82967C12.5851 1.87568 12.0861 2.17285 11.6962 2.65495C11.2855 3.16261 11.0492 3.7574 10.8845 4.38019C10.7023 5.06944 10.6276 5.7747 10.606 6.48751C10.5833 7.24344 10.6454 7.9947 10.6949 8.7473C10.7323 9.31542 10.7743 9.88309 10.7952 10.4525C10.8138 10.9633 10.8163 11.4739 10.8074 11.9842C10.7938 12.7652 10.72 13.5418 10.6014 14.314C10.5565 14.6065 10.5087 14.8983 10.4627 15.1906C10.4587 15.2155 10.4595 15.2413 10.4575 15.2791C10.51 15.2477 10.5336 15.2057 10.5622 15.1695C10.8567 14.7999 11.2046 14.4954 11.6702 14.374C12.4508 14.1708 13.0994 14.4016 13.6133 15.0181C13.6824 15.101 13.7573 15.1762 13.8396 15.246C14.0096 15.3907 14.1636 15.5516 14.2621 15.7545C14.2965 15.8254 14.3557 15.9014 14.2828 15.9901C14.2634 16.0137 14.2981 16.0515 14.3126 16.0808C14.3563 16.1706 14.4039 16.2584 14.4464 16.3488C14.5637 16.5978 14.5602 16.8578 14.5117 17.121C14.4808 17.2888 14.4924 17.4549 14.5446 17.6147C14.7326 18.1903 14.5302 18.6889 14.2459 19.1725C14.2348 19.1914 14.2203 19.2094 14.2043 19.2243C14.1785 19.2485 14.1525 19.2912 14.1125 19.2661C14.0785 19.2448 14.1023 19.2043 14.1107 19.1736C14.2172 18.7836 14.1741 18.4262 13.8871 18.1188C13.8107 18.037 13.7771 17.9274 13.7189 17.8307C13.682 17.8565 13.7211 17.9221 13.6678 17.9294C13.6273 17.9349 13.6044 17.8958 13.5784 17.8709C13.3937 17.692 13.2886 17.4717 13.2452 17.2204C13.2139 17.0385 13.1845 16.8563 13.0799 16.686C13.0378 16.7632 13.0376 16.8425 13.0165 16.9156C13.0085 16.943 13.0138 16.9841 12.9794 16.9896C12.9372 16.9965 12.9292 16.9519 12.9167 16.9239C12.7649 16.5822 12.7002 16.2277 12.746 15.8527C12.7742 15.6223 12.7507 15.3938 12.6533 15.1793C12.4455 14.7219 12.0261 14.6143 11.5958 14.7905C11.1466 14.9743 10.8636 15.3282 10.6374 15.7389C10.374 16.2173 10.2513 16.7347 10.1857 17.2726C10.1144 17.8572 10.0679 18.4435 10.065 19.0314C10.0621 19.5971 10.0924 20.1621 10.1742 20.724C10.2657 21.3523 10.412 21.966 10.6198 22.5657C10.6589 22.6786 10.6471 22.6986 10.5264 22.7195C10.1568 22.783 9.78407 22.8002 9.40955 22.7904C9.31865 22.7879 9.28864 22.7393 9.2753 22.6612C9.22663 22.3767 9.18773 22.0907 9.16461 21.8033C9.11794 21.2205 9.09038 20.6368 9.09882 20.0518C9.11772 18.7362 9.23152 17.4308 9.4829 16.1372C9.61493 15.4587 9.75473 14.781 9.8392 14.0937C9.97922 12.9553 9.72562 11.9177 9.04081 10.9926C8.91256 10.8193 8.75564 10.6719 8.56516 10.5648C8.12951 10.3201 7.72454 10.469 7.54806 10.9395C7.49983 11.068 7.46716 11.2009 7.43915 11.3352C7.36803 11.6748 7.19999 11.9613 6.96461 12.2122C6.92171 12.258 6.88415 12.3089 6.84236 12.3558C6.81903 12.3818 6.80947 12.4325 6.76413 12.4234C6.71967 12.4154 6.73212 12.3636 6.70478 12.3122Z" fill="black"/>
<path d="M17.5246 11.2489C17.311 11.1427 17.1608 11.2872 17.0089 11.449C16.8954 11.5699 16.7487 11.5941 16.5897 11.5426C16.4831 11.5081 16.387 11.4528 16.2915 11.3968C16.1241 11.2987 15.9512 11.2198 15.7542 11.2043C15.4809 11.1827 15.3437 10.9967 15.2393 10.7724C15.2135 10.7171 15.2455 10.6819 15.2773 10.6446C15.4217 10.4761 15.6091 10.3757 15.816 10.3081C16.1123 10.2114 16.3686 10.056 16.5462 9.79465C16.6249 9.67907 16.6873 9.55193 16.752 9.42746C16.8056 9.32433 16.8716 9.23275 16.9585 9.15563C17.0754 9.05205 17.1796 8.93758 17.2574 8.80089C17.2701 8.77866 17.281 8.74688 17.3099 8.74977C17.3495 8.75377 17.3415 8.79355 17.3472 8.82067C17.437 9.24698 17.6546 9.58371 18.0338 9.81021C18.167 9.88955 18.3017 9.9689 18.4019 10.0918C18.4299 10.126 18.4608 10.1589 18.4824 10.1972C18.5655 10.3452 18.5475 10.4286 18.4101 10.5288C18.3566 10.5679 18.3003 10.6041 18.2414 10.6344C18.0769 10.7184 17.956 10.8395 17.8836 11.012C17.8242 11.1545 17.7264 11.2532 17.5246 11.2489Z" fill="black"/>
</svg>
