<svg width="24" height="24" viewBox="0 0 24 24" fill="none" xmlns="http://www.w3.org/2000/svg">
<path d="M3.32535 6.15239C3.31545 5.31028 3.33321 4.50369 3.35326 3.69711C3.36239 3.32946 3.57603 3.06432 3.93708 2.98338C5.02123 2.74108 6.11351 2.5452 7.21493 2.39728C8.20267 2.26459 9.19371 2.17604 10.1886 2.1187C11.1636 2.06262 12.1389 2.06491 13.1145 2.08165C13.5786 2.08977 14.0419 2.12935 14.5057 2.15168C14.6016 2.15625 14.6353 2.18187 14.5945 2.2826C14.2151 3.21808 13.8429 4.1566 13.4598 5.0903C13.2995 5.48129 13.2913 5.47621 13.5154 5.83092C13.8447 6.35232 14.1695 6.87651 14.5003 7.39715C14.5549 7.48291 14.5579 7.54558 14.4988 7.63413C13.9127 8.51252 13.3317 9.39421 12.7489 10.2749C12.6999 10.3487 12.6542 10.4266 12.5949 10.4916C12.4741 10.6245 12.4736 10.7734 12.4974 10.9399C12.5972 11.6336 12.688 12.3285 12.7834 13.0227C12.793 13.0935 12.7704 13.1422 12.7167 13.1879C11.9073 13.8722 11.0992 14.558 10.2906 15.243C10.0396 15.4557 10.0419 15.4529 10.2325 15.7147C10.6102 16.2336 10.9835 16.756 11.3623 17.2743C11.4171 17.3492 11.4011 17.4134 11.3724 17.4867C11.0715 18.2623 10.7714 19.0382 10.4712 19.8144C10.2807 20.3068 10.0881 20.7983 9.90261 21.2926C9.85974 21.4065 9.81153 21.4326 9.69862 21.377C9.04985 21.0576 8.46096 20.6511 7.92129 20.1716C7.2644 19.5878 6.69708 18.9228 6.19191 18.2068C5.48225 17.201 4.92101 16.1153 4.49019 14.9617C4.16111 14.0802 3.92566 13.1734 3.75947 12.2491C3.61688 11.4552 3.51742 10.655 3.44967 9.85065C3.34514 8.60817 3.3081 7.36366 3.32535 6.15239ZM7.99208 12.4622C8.10296 12.4533 8.23895 12.4516 8.3719 12.43C9.52913 12.243 10.2454 11.3108 10.5103 10.2777C10.5476 10.132 10.456 10.0572 10.3142 10.1041C10.2784 10.116 10.2441 10.1341 10.2109 10.1523C9.93661 10.3038 9.65067 10.4286 9.35711 10.5367C8.20622 10.9604 7.04924 10.9998 5.88516 10.5923C5.74561 10.5436 5.60962 10.4847 5.46906 10.4393C5.32088 10.3913 5.2369 10.469 5.26253 10.6217C5.27242 10.6816 5.30363 10.7321 5.33433 10.7826C5.42871 10.9379 5.52767 11.0901 5.64133 11.2322C6.23936 11.9786 6.99114 12.4333 7.99208 12.4622Z" fill="black"/>
<path d="M20.6703 6.05599C20.6703 6.53375 20.6822 6.99882 20.668 7.46314C20.6353 8.52674 20.562 9.58705 20.4054 10.6413C20.2337 11.8005 20.0071 12.9479 19.6623 14.0681C19.1429 15.7551 18.4028 17.3378 17.3623 18.7711C16.7424 19.6248 16.0241 20.382 15.1402 20.9691C14.3866 21.4697 13.5704 21.8097 12.6626 21.9005C11.8831 21.9784 11.1202 21.8949 10.374 21.6551C10.2722 21.6224 10.27 21.5691 10.306 21.4829C10.5968 20.7897 10.8857 20.0958 11.1732 19.4011C11.4414 18.7533 11.7053 18.1038 11.9755 17.457C12.0245 17.3401 12.0204 17.2508 11.9412 17.1434C11.5774 16.651 11.2247 16.1499 10.8629 15.6559C10.7992 15.5688 10.8434 15.5331 10.903 15.4833C11.5931 14.9064 12.2825 14.3284 12.9719 13.7506C13.1175 13.6286 13.2606 13.5035 13.4085 13.384C13.4676 13.3363 13.4877 13.2886 13.4735 13.2105C13.3639 12.6124 13.2588 12.0134 13.1535 11.4146C13.1264 11.2609 13.1066 11.1056 13.0756 10.9526C13.0607 10.8788 13.081 10.8227 13.1208 10.7638C13.8254 9.72076 14.5277 8.67619 15.2348 7.63491C15.3155 7.51616 15.3135 7.42965 15.2338 7.30684C14.8415 6.70045 14.4617 6.08593 14.0756 5.47547C14.0423 5.42269 14.0418 5.37804 14.0651 5.32197C14.4452 4.40501 14.8235 3.4873 15.2023 2.56958C15.2087 2.55385 15.216 2.53862 15.2226 2.52315C15.3482 2.22071 15.348 2.22198 15.6694 2.2575C17.089 2.41405 18.4977 2.63656 19.8922 2.94763C20.0698 2.98721 20.2479 3.01512 20.392 3.14401C20.5526 3.28736 20.6457 3.46065 20.6472 3.67505C20.6531 4.47276 20.6952 5.27046 20.6703 6.05599ZM16.3639 12.4511C16.7188 12.4595 17.0532 12.3874 17.3701 12.2306C17.8489 11.9936 18.2158 11.6346 18.5089 11.1946C18.5931 11.0683 18.6753 10.9389 18.7217 10.793C18.759 10.676 18.7012 10.6068 18.5809 10.6276C18.5071 10.6403 18.436 10.672 18.3658 10.6996C17.4739 11.0488 16.5615 11.1495 15.6212 10.9348C15.1361 10.824 14.6771 10.6479 14.2415 10.4081C14.1768 10.3726 14.1047 10.3178 14.0317 10.3807C13.9626 10.4403 13.9906 10.52 14.0141 10.5933C14.0672 10.7585 14.1334 10.9191 14.2169 11.0708C14.683 11.9193 15.3546 12.4493 16.3639 12.4511Z" fill="black"/>
</svg>
