<svg width="24" height="24" viewBox="0 0 24 24" fill="none" xmlns="http://www.w3.org/2000/svg">
<path d="M11.9931 1.20703C12.1963 1.45906 12.3711 1.72185 12.5276 1.9957C12.8438 2.54924 13.1014 3.12584 13.2148 3.7599C13.4257 4.93768 13.1281 5.97746 12.337 6.86171C12.0957 7.13126 11.9777 7.39866 12.0128 7.75396C12.0349 7.97679 12.0183 8.20331 12.046 8.42767C12.0564 8.51373 12.0859 8.55461 12.1701 8.57121C12.3124 8.59918 12.4557 8.59211 12.5986 8.59149C12.9628 8.58965 13.3252 8.60686 13.6792 8.70091C13.7625 8.72304 13.8452 8.75377 13.9227 8.79189C14.3772 9.01687 14.5137 9.28918 14.3831 9.77787C14.2527 10.2653 14.2448 10.7577 14.2678 11.2553C14.3087 12.1371 14.5146 12.9845 14.7946 13.8171C14.8524 13.9889 14.8862 14.1623 14.8303 14.3436C14.7722 14.532 14.6517 14.6629 14.502 14.6672C14.3173 14.6722 14.1987 14.5661 14.1181 14.4091C14.0238 14.2247 14.0069 14.0215 14.0207 13.8251C14.0388 13.5672 13.9857 13.3155 13.9832 13.0592C13.9734 13.2208 13.9558 13.3828 13.9552 13.5445C13.9528 14.4137 13.9445 15.2832 13.958 16.1521C13.9684 16.8166 13.997 17.4817 14.1144 18.1385C14.1317 18.235 14.1341 18.3318 14.1181 18.4286C14.017 19.044 14.056 19.6513 14.2109 20.254C14.269 20.4796 14.3612 20.6901 14.4793 20.8878C14.6538 21.1804 14.9151 21.3537 15.2501 21.4207C15.4905 21.469 15.7342 21.5092 15.9607 21.6097C16.1015 21.6724 16.2622 21.733 16.2604 21.9192C16.2585 22.1172 16.0852 22.1691 15.9367 22.2201C15.7824 22.273 15.6226 22.3102 15.4588 22.3286C15.24 22.3535 15.0187 22.3818 14.8155 22.4672C14.2279 22.7147 13.6224 22.7306 13.0067 22.6222C12.5144 22.5355 12.0294 22.5631 11.5465 22.6839C11.1048 22.7943 10.6598 22.8428 10.2114 22.7236C10.1032 22.6947 9.99007 22.6655 9.89449 22.6105C9.46388 22.3621 8.99517 22.2543 8.50771 22.1986C8.30025 22.175 8.09248 22.1341 7.91022 22.0173C7.69937 21.882 7.68339 21.7281 7.86319 21.5572C8.00795 21.4198 8.18898 21.3433 8.37032 21.2759C8.93309 21.0669 9.25704 20.6585 9.39657 20.0871C9.61356 19.2004 9.66735 18.2971 9.63908 17.3901C9.61633 16.6641 9.58867 15.9388 9.61756 15.2128C9.63754 14.7115 9.70485 14.201 9.60342 13.7129C9.47894 13.1139 9.62617 12.5324 9.60957 11.9435C9.57637 10.7577 9.56347 9.57103 9.40795 8.39202C9.39995 8.33147 9.39811 8.26939 9.3978 8.20822C9.39657 7.93499 9.54041 7.77977 9.81457 7.75887C10.1899 7.7306 10.5129 7.88796 10.8325 8.0524C11.0735 8.17626 11.3009 8.32532 11.5542 8.42644C11.6611 8.46917 11.7103 8.44396 11.7165 8.33301C11.7355 7.99 11.7223 7.64823 11.6781 7.30737C11.6624 7.1872 11.5693 7.12726 11.4853 7.06088C11.0381 6.70742 10.7369 6.26667 10.6644 5.68947C10.6054 5.22075 10.7376 4.78739 10.9137 4.36293C11.0941 3.92803 11.3326 3.52078 11.5247 3.0908C11.7764 2.52742 11.939 1.94775 11.9494 1.32874C11.9504 1.29432 11.943 1.25652 11.9931 1.20703Z" fill="black"/>
</svg>
