<svg width="24" height="24" viewBox="0 0 24 24" fill="none" xmlns="http://www.w3.org/2000/svg">
<path d="M4.00113 7.05764C4.2671 7.03508 4.4772 7.1324 4.65267 7.31942C4.75366 7.42696 4.8111 7.55863 4.86277 7.69424C4.97504 7.99011 5.14894 8.11523 5.45898 8.10473C5.7155 8.09608 5.96626 8.09765 6.19289 8.24323C6.24194 8.2747 6.29597 8.25975 6.34371 8.2351C6.55276 8.12572 6.76076 8.01424 6.96929 7.90408C7.02201 7.87627 7.0325 7.83824 7.00758 7.78473C6.89007 7.5324 6.92863 7.28506 7.02253 7.0343C7.19696 6.56951 7.13926 6.34157 6.73138 6.04963C6.3264 5.75953 6.16089 5.37002 6.1698 4.8887C6.17164 4.78405 6.18895 4.68149 6.24403 4.58103C6.30751 4.60831 6.3062 4.66575 6.31485 4.71244C6.40692 5.20451 6.70384 5.51035 7.17257 5.66038C7.35329 5.71809 7.52195 5.79966 7.67434 5.91219C7.92536 6.0979 8.05677 6.34891 8.06989 6.66105C8.07513 6.78302 8.05782 6.90603 8.08746 7.02695C8.131 7.20453 8.21704 7.25515 8.38124 7.18617C8.7078 7.04899 9.03593 6.91679 9.37534 6.81423C9.45325 6.79062 9.47135 6.75443 9.43279 6.68098C9.36433 6.54957 9.28354 6.42446 9.24183 6.27941C9.15318 5.97042 9.16944 5.66589 9.26833 5.3632C9.31029 5.23441 9.35436 5.10615 9.39685 4.97762C9.53377 4.56424 9.47659 4.17656 9.24446 3.81118C9.20118 3.74299 9.14662 3.67977 9.11987 3.58535C9.23816 3.59348 9.31921 3.65433 9.39423 3.7144C9.768 4.0142 9.9983 4.3885 9.9823 4.88556C9.97863 4.99913 9.98283 5.11297 9.97601 5.22654C9.95371 5.5956 10.1237 5.86498 10.4133 6.0693C10.5497 6.16557 10.6845 6.26183 10.7876 6.39482C10.8206 6.43731 10.861 6.45436 10.9127 6.44964C10.9562 6.44544 10.9998 6.44334 11.043 6.43731C11.2904 6.40269 11.3738 6.30432 11.3864 6.04648C11.3932 5.90275 11.3567 5.76766 11.3093 5.63678C11.053 4.92752 11.2227 4.28857 11.6198 3.68371C11.7948 3.41695 11.9606 3.14547 12.077 2.84514C12.2118 2.49733 12.2457 2.14323 12.1901 1.77733C12.1814 1.7212 12.1741 1.6648 12.1701 1.60815C12.1678 1.57641 12.1418 1.53129 12.1872 1.51582C12.2255 1.50296 12.2475 1.54493 12.2677 1.57116C12.4802 1.84684 12.5775 2.16631 12.605 2.5073C12.631 2.82835 12.5864 3.14259 12.4951 3.45236C12.4138 3.72804 12.327 4.00397 12.3519 4.29958C12.3805 4.63952 12.5321 4.92542 12.7259 5.19507C12.7768 5.26615 12.8269 5.33776 12.8768 5.40963C13.073 5.69343 13.1676 6.00399 13.1246 6.35101C13.1207 6.38328 13.1008 6.42524 13.1485 6.44098C13.1868 6.45357 13.2154 6.4276 13.2369 6.39823C13.3345 6.26524 13.468 6.17317 13.5986 6.07822C13.9131 5.85002 14.0678 5.56018 14.0243 5.15625C13.9566 4.52542 14.1568 4.00161 14.7105 3.64594C14.7288 3.63413 14.7469 3.62128 14.7669 3.61236C14.7965 3.59898 14.8301 3.562 14.8592 3.59951C14.8804 3.62679 14.8479 3.65643 14.8322 3.68082C14.6481 3.96489 14.5182 4.26443 14.5408 4.6146C14.5544 4.82759 14.6171 5.02798 14.6911 5.22339C14.8789 5.71861 14.8765 6.19731 14.5964 6.65869C14.5397 6.75207 14.5646 6.79089 14.6664 6.82394C14.9906 6.92912 15.3106 7.04636 15.6217 7.18696C15.805 7.26984 15.917 7.20191 15.9304 6.99967C15.9399 6.85594 15.9244 6.70957 15.9454 6.56819C16.012 6.11862 16.3157 5.87416 16.7118 5.71704C16.801 5.68163 16.8925 5.6512 16.9812 5.61422C17.3767 5.44897 17.6041 5.14969 17.6823 4.73132C17.6923 4.67755 17.6931 4.61932 17.7398 4.56398C17.7975 4.64083 17.8132 4.72555 17.8203 4.80949C17.8646 5.32018 17.7193 5.75035 17.2844 6.05645C17.2133 6.10655 17.142 6.16058 17.084 6.22459C16.8889 6.44019 16.8561 6.68623 16.9586 6.9564C17.0378 7.16466 17.1234 7.37345 17.0664 7.6048C17.058 7.63863 17.0552 7.67667 17.0373 7.70499C16.9589 7.82985 17.0019 7.89804 17.1276 7.95627C17.2978 8.03496 17.4612 8.12887 17.6262 8.2191C17.7188 8.26972 17.8032 8.27418 17.8966 8.2149C18.1033 8.08401 18.3318 8.04913 18.5749 8.06355C18.9114 8.08349 19.1811 7.9589 19.3571 7.6604C19.4505 7.50171 19.5546 7.35063 19.6863 7.22105C19.7571 7.15128 19.8332 7.08597 19.9375 7.05922C19.9417 7.07758 19.9507 7.09305 19.9462 7.10092C19.7962 7.36951 19.7508 7.66906 19.6878 7.96336C19.6029 8.36074 19.3872 8.6532 19.0124 8.82658C18.8451 8.90396 18.8498 8.94986 19.0025 9.04979C19.8339 9.59249 20.6287 10.1848 21.3904 10.8221C21.8565 11.2122 22.3056 11.6206 22.7541 12.0303C22.9102 12.1727 22.9094 12.1764 22.7601 12.318C21.6643 13.3586 20.4941 14.3062 19.2296 15.1354C19.0171 15.2746 18.9951 15.3748 19.1821 15.5537C19.4326 15.7932 19.5766 16.0778 19.6535 16.412C19.7337 16.7611 19.8909 17.0701 20.2151 17.2639C20.2358 17.2762 20.2699 17.2886 20.2541 17.3214C20.2381 17.3552 20.2004 17.346 20.1718 17.3436C19.8715 17.3174 19.6349 17.1687 19.4442 16.9457C19.3537 16.84 19.2802 16.7191 19.2034 16.6027C19.0426 16.359 18.8188 16.2134 18.5314 16.167C18.3407 16.136 18.1542 16.093 17.9792 16.0078C17.9173 15.9776 17.8541 15.97 17.7901 16.0023C17.5601 16.1185 17.3303 16.2357 17.0995 16.3501C17.0323 16.3834 17.0053 16.4193 17.0536 16.4914C17.2057 16.7194 17.1876 16.9735 17.1559 17.2269C17.137 17.3783 17.084 17.5241 17.0893 17.6797C17.0971 17.9165 17.1884 18.1106 17.3754 18.258C17.5055 18.3608 17.6535 18.4393 17.7728 18.5576C17.9005 18.6837 17.9617 18.8382 17.9895 19.0103C17.9942 19.0399 18.0057 19.0774 17.9756 19.095C17.937 19.1176 17.9218 19.0756 17.9081 19.0523C17.7539 18.7897 17.5039 18.6798 17.2238 18.6103C17.0114 18.5576 16.8047 18.4896 16.6308 18.3451C16.3734 18.1311 16.2767 17.8436 16.242 17.5265C16.2221 17.3436 16.1628 17.1892 15.9897 17.0942C15.8609 17.0236 15.7392 17.0158 15.6023 17.0761C15.3544 17.1855 15.1068 17.2991 14.8495 17.3812C14.6483 17.4454 14.5922 17.5842 14.5728 17.7628C14.561 17.8698 14.5843 17.9742 14.6307 18.0686C14.834 18.4833 14.812 18.8941 14.63 19.3096C14.5618 19.4651 14.5151 19.6293 14.5135 19.8043C14.5119 19.9991 14.5644 20.1746 14.6717 20.3359C14.6974 20.3745 14.733 20.4089 14.7385 20.4689C14.6564 20.4765 14.5993 20.434 14.5431 20.3976C14.1746 20.1584 14.0492 19.8043 14.1038 19.3883C14.1531 19.0116 14.04 18.7102 13.7617 18.461C13.5813 18.2995 13.415 18.1269 13.3465 17.884C13.3318 17.832 13.2941 17.8223 13.2434 17.8307C13.0971 17.8554 12.9502 17.8782 12.8031 17.8984C12.7527 17.9052 12.7293 17.9375 12.705 17.9753C12.4943 18.3026 12.4395 18.6415 12.6066 19.0077C12.759 19.3418 12.8177 19.6925 12.7343 20.0561C12.674 20.3192 12.5523 20.5586 12.4007 20.7784C12.0607 21.271 11.8638 21.7972 11.9689 22.406C11.9737 22.4338 11.9855 22.4742 11.9459 22.4847C11.9034 22.496 11.8868 22.4535 11.8693 22.4259C11.6277 22.0466 11.5474 21.6375 11.6495 21.1973C11.683 21.0525 11.7195 20.9083 11.7641 20.7666C11.8973 20.3449 11.7958 19.9758 11.5262 19.6393C11.4005 19.4824 11.2749 19.3256 11.1718 19.1519C10.9699 18.812 10.9219 18.4492 10.9998 18.0647C11.0116 18.0067 11.0727 17.9176 10.9921 17.8913C10.9001 17.8614 10.7868 17.8142 10.6921 17.8905C10.5357 18.0164 10.3799 18.1442 10.2349 18.2827C10.0311 18.4768 9.95791 18.7207 9.99306 18.9993C10.0224 19.2332 10.0565 19.4667 10.0059 19.7033C9.93246 20.0466 9.74702 20.31 9.45298 20.4986C9.41757 20.5214 9.37193 20.5628 9.33521 20.5321C9.29088 20.4949 9.34098 20.4516 9.36197 20.4186C9.60879 20.0301 9.60617 19.6277 9.43148 19.2157C9.37534 19.0829 9.31633 18.951 9.25679 18.8199C9.08314 18.438 9.08734 18.0589 9.2699 17.6807C9.37115 17.4706 9.36852 17.4722 9.15764 17.3893C8.9095 17.2917 8.65534 17.2054 8.41848 17.085C8.11527 16.9305 7.80313 17.18 7.77533 17.447C7.76405 17.5556 7.75067 17.6642 7.73415 17.772C7.67854 18.1321 7.47316 18.3863 7.15945 18.5552C7.02148 18.6294 6.87302 18.685 6.72902 18.7477C6.47538 18.8582 6.27315 19.0216 6.16561 19.2852C6.15328 19.3153 6.1483 19.3678 6.10554 19.3589C6.05911 19.3492 6.06725 19.2957 6.06593 19.2582C6.05728 19.0365 6.14069 18.849 6.28233 18.6837C6.36836 18.5833 6.46987 18.4996 6.57689 18.4243C6.88037 18.2111 6.95565 17.9168 6.89243 17.5703C6.87434 17.4714 6.85361 17.373 6.83027 17.2752C6.76574 17.0042 6.78988 16.7443 6.93519 16.5038C6.98424 16.4225 6.97034 16.3831 6.88745 16.343C6.69073 16.2478 6.49846 16.1439 6.30279 16.0463C6.1079 15.9493 5.80311 15.9831 5.6578 16.1468C5.36796 16.4728 5.00153 16.6029 4.58028 16.6431C4.23903 16.6756 3.96991 16.8437 3.79811 17.1498C3.78106 17.1802 3.76558 17.2117 3.74748 17.2416C3.73017 17.2699 3.72414 17.3219 3.68322 17.3127C3.63312 17.3017 3.65148 17.2476 3.65017 17.2114C3.6444 17.0648 3.67745 16.9253 3.73437 16.7907C3.83693 16.5481 4.00165 16.3566 4.23641 16.2399C4.55772 16.0804 4.76677 15.8465 4.85071 15.4884C4.91025 15.2348 4.92782 15.2419 4.70199 15.0937C3.72466 14.4518 2.80636 13.7334 1.9295 12.9609C1.67691 12.7385 1.43061 12.5095 1.18641 12.2779C1.10326 12.1989 1.11402 12.1509 1.19008 12.0785C1.66274 11.6305 2.15009 11.1993 2.64951 10.7812C3.41122 10.1436 4.2107 9.55682 5.04586 9.01937C5.16363 8.94356 5.10566 8.90868 5.0275 8.87642C4.80586 8.78514 4.65372 8.62461 4.54749 8.41425C4.47248 8.26579 4.45123 8.1029 4.44729 7.94316C4.43838 7.58801 4.33031 7.29214 4.01398 7.09856C4.00716 7.09436 4.00742 7.08204 4.00113 7.05764ZM3.25384 12.1866C3.31259 12.2024 3.33305 12.2094 3.35404 12.2131C3.91037 12.3136 4.4292 12.5126 4.91655 12.798C5.57439 13.1836 6.13072 13.6948 6.67997 14.215C7.11486 14.6268 7.55683 15.0294 8.03789 15.3877C8.75868 15.9246 9.53036 16.3624 10.3994 16.6097C11.143 16.8212 11.8994 16.8846 12.669 16.7886C13.5186 16.6827 14.2905 16.3789 14.9974 15.9007C15.6165 15.4821 16.1418 14.9552 16.6795 14.4439C17.0856 14.0578 17.5013 13.6856 17.9559 13.3575C18.4049 13.0336 18.886 12.7726 19.4119 12.5921C19.8229 12.451 20.2484 12.3781 20.698 12.2918C19.6781 12.1226 18.7722 11.7431 17.9575 11.1497C17.4014 10.7448 16.9028 10.2737 16.4159 9.78974C16.0191 9.3955 15.6159 9.00888 15.1803 8.65635C13.9078 7.62657 12.4629 7.30761 10.8718 7.61319C9.77194 7.82434 8.8295 8.36546 7.96654 9.05793C7.29795 9.59459 6.70489 10.2152 6.06384 10.7828C5.26147 11.4928 4.36388 12.0051 3.25384 12.1866Z" fill="black"/>
<path d="M16.1736 12.2168C16.1484 14.4812 14.3868 16.3999 11.971 16.3881C9.63109 16.3768 7.83802 14.52 7.81231 12.2459C7.78556 9.88078 9.64525 7.9723 12.0183 7.9765C14.3792 7.9807 16.178 9.95318 16.1736 12.2168Z" fill="black"/>
</svg>
