<svg width="24" height="24" viewBox="0 0 24 24" fill="none" xmlns="http://www.w3.org/2000/svg">
<path d="M12.0842 16.7982C11.0233 16.8043 10.0697 16.6642 9.12795 16.4228C7.95981 16.1235 6.86383 15.6504 5.80969 15.072C5.17666 14.7247 4.57188 14.3331 3.98998 13.9072C3.44972 13.5121 2.93295 13.0866 2.44587 12.6265C2.27623 12.4664 2.11153 12.3008 1.93879 12.144C1.86273 12.0749 1.87283 12.0321 1.94127 11.9638C2.50503 11.3999 3.10713 10.8802 3.74118 10.3972C4.62012 9.72733 5.55594 9.14852 6.54721 8.66102C7.7778 8.05604 9.06879 7.6343 10.4245 7.41992C10.824 7.35664 11.2272 7.3249 11.6322 7.30779C12.9195 7.25337 14.1666 7.47001 15.392 7.84372C16.7415 8.25516 17.9915 8.8754 19.1745 9.63828C20.039 10.1959 20.8468 10.8254 21.6016 11.5244C21.7579 11.6691 21.9048 11.8228 22.0611 11.9673C22.1289 12.03 22.1338 12.0708 22.0644 12.1401C21.4771 12.724 20.8573 13.2701 20.1954 13.7683C19.0322 14.6437 17.7843 15.3713 16.4317 15.913C15.5334 16.2729 14.6046 16.5265 13.6469 16.6702C13.4503 16.6996 13.2534 16.7295 13.0555 16.7495C12.7035 16.7848 12.3506 16.8066 12.0842 16.7982ZM11.9773 15.267C12.191 15.2582 12.3864 15.2617 12.5818 15.2483C13.2751 15.2003 13.958 15.0889 14.6324 14.9255C15.9428 14.6078 17.1542 14.0632 18.2832 13.3292C18.8366 12.9693 19.3602 12.5715 19.8487 12.1271C19.9138 12.0679 19.9062 12.0366 19.844 11.9869C19.7234 11.8906 19.6081 11.7878 19.49 11.6884C18.7406 11.0579 17.9181 10.5374 17.0472 10.0944C16.1569 9.64158 15.2232 9.30311 14.2482 9.07885C13.0448 8.80202 11.8319 8.73482 10.6098 8.91497C9.28378 9.11038 8.03134 9.53563 6.84342 10.1538C5.88059 10.6547 4.98311 11.2517 4.17076 11.9743C4.09717 12.0399 4.09552 12.0791 4.16746 12.1423C4.4379 12.3802 4.7104 12.6152 5.00104 12.8292C6.11228 13.6471 7.3136 14.2908 8.62829 14.7163C9.72263 15.0698 10.8431 15.2664 11.9773 15.267Z" fill="black"/>
<path d="M20.9744 9.05988C20.9235 9.02793 20.8715 8.99722 20.8214 8.96362C19.9915 8.40563 19.1295 7.90288 18.2277 7.47001C16.7634 6.76691 15.2327 6.27962 13.6189 6.06875C13.0539 5.99495 12.4852 5.95579 11.9154 5.96342C10.5791 5.98135 9.2745 6.19779 7.99774 6.59479C6.61297 7.02539 5.31395 7.63924 4.07656 8.38893C3.75376 8.58455 3.43405 8.78532 3.12321 8.9999C3.09167 9.02175 3.06364 9.05741 3.00551 9.04813C3.07085 8.92384 3.17 8.83397 3.25802 8.7377C4.03883 7.88227 4.91303 7.13505 5.8742 6.48863C6.83641 5.84118 7.86355 5.32627 8.96222 4.95442C9.66038 4.71819 10.3765 4.55968 11.1078 4.47599C11.9771 4.37643 12.8405 4.43353 13.6978 4.60276C15.1117 4.88165 16.4183 5.42934 17.6442 6.17779C18.3015 6.57912 18.9207 7.03364 19.5032 7.53762C20.0202 7.98492 20.5143 8.4551 20.9521 8.98176C20.967 8.99949 20.9787 9.01948 20.9921 9.03845C20.9861 9.04566 20.9801 9.05287 20.9744 9.05988Z" fill="black"/>
<path d="M17.4279 16.4154C17.2614 16.5727 17.0763 16.7073 16.8877 16.8365C16.2606 17.2661 15.5926 17.6243 14.9189 17.9739C14.1334 18.3816 13.3317 18.7597 12.5715 19.2154C12.4066 19.3144 12.2446 19.4178 12.0915 19.5341C12.0317 19.5795 11.9888 19.5893 11.9212 19.5403C11.4725 19.2154 10.9856 18.9534 10.4952 18.6985C9.5365 18.1996 8.55697 17.7398 7.63393 17.1741C7.28268 16.9589 6.93845 16.7328 6.62452 16.464C6.60493 16.4471 6.57525 16.4362 6.58226 16.3865C6.74283 16.4393 6.90238 16.4865 7.05842 16.5436C7.92189 16.8596 8.77712 17.2005 9.67357 17.4161C10.2981 17.5664 10.9299 17.6658 11.5735 17.7008C12.7513 17.7647 13.8893 17.5615 15.0107 17.2255C15.6853 17.0235 16.3379 16.7598 17.0002 16.5232C17.1375 16.4741 17.277 16.4317 17.4156 16.3863C17.4197 16.3958 17.4238 16.4055 17.4279 16.4154Z" fill="black"/>
<path d="M12.01 9.34949C13.5306 9.35362 14.7235 10.5488 14.7248 12.0595C14.726 13.4605 13.6112 14.7754 11.9855 14.7639C10.3464 14.7521 9.26626 13.4228 9.27492 12.0506C9.2844 10.5318 10.4826 9.34537 12.01 9.34949Z" fill="black"/>
</svg>
