<svg width="24" height="24" viewBox="0 0 24 24" fill="none" xmlns="http://www.w3.org/2000/svg">
<path d="M14.5042 12.6521C14.4661 13.0691 14.3889 13.4827 14.4036 13.904C14.4091 14.0654 14.4389 14.2199 14.5256 14.3606C14.6229 14.5185 14.7629 14.6133 14.9452 14.6256C15.0642 14.6337 15.0891 14.6859 15.0889 14.793C15.0861 16.5689 15.0864 18.345 15.0859 20.1209C15.0859 20.3253 15.0856 20.3251 15.2946 20.3251C16.2939 20.3251 17.2931 20.3261 18.2924 20.3241C18.423 20.3238 18.54 20.3435 18.5955 20.4769C18.6517 20.6118 18.6083 20.7348 18.5165 20.8377C18.3958 20.9731 18.243 21.0725 18.1002 21.1826C17.7129 21.4814 17.3693 21.8254 17.0458 22.1902C16.8703 22.3881 16.6575 22.4804 16.3902 22.4774C15.7984 22.4703 15.2064 22.4751 14.6143 22.4761C14.4056 22.4764 14.3607 22.514 14.3166 22.7182C14.2747 22.9118 14.1643 22.9988 13.9439 22.9993C13.3057 23.0008 12.6675 22.9993 12.0294 22.9991C11.6348 22.9988 11.2402 23.0003 10.8453 22.9983C10.5639 22.9968 10.4842 22.9308 10.4227 22.6579C10.3934 22.5286 10.3228 22.4766 10.1627 22.4764C9.56238 22.4754 8.96203 22.4754 8.36167 22.4764C8.26863 22.4766 8.17735 22.4701 8.08734 22.4461C7.95395 22.4108 7.83898 22.3445 7.7477 22.2406C7.3357 21.7729 6.88385 21.3488 6.38209 20.9784C6.30493 20.9214 6.22752 20.8629 6.17684 20.7769C6.04119 20.5462 6.16096 20.3269 6.42873 20.3264C7.26837 20.3243 8.10801 20.3251 8.94791 20.3248C9.12416 20.3248 9.30091 20.3183 9.47691 20.3276C9.60348 20.3342 9.64357 20.2913 9.64307 20.1635C9.63878 19.1894 9.64105 18.2154 9.6408 17.2414C9.64055 15.4991 9.63979 13.7567 9.64105 12.0144C9.64105 11.8911 9.62416 11.7756 9.5818 11.6581C9.47691 11.3667 9.46253 11.0578 9.44387 10.7527C9.43076 10.5356 9.43732 10.3172 9.46026 10.0991C9.50767 9.64905 9.76611 9.45036 10.2094 9.53206C10.5334 9.59182 10.8307 9.7363 11.1479 9.81824C11.4449 9.89515 11.7422 9.96348 12.0473 10.0026C12.1622 10.0172 12.1827 9.97987 12.1824 9.878C12.1799 9.23554 12.1822 8.59333 12.1824 7.95086C12.1824 7.7852 12.1862 7.77991 12.3503 7.78041C12.7008 7.78142 12.6446 7.75646 12.6459 8.07492C12.6481 8.67527 12.6466 9.27563 12.6469 9.87598C12.6469 10.0482 12.6471 10.0464 12.8244 10.0469C13.3688 10.0492 13.9028 9.96474 14.4353 9.86338C14.546 9.8422 14.6605 9.82303 14.7722 9.82757C15.1249 9.84194 15.3216 10.0608 15.365 10.4385C15.4058 10.7933 15.3486 11.1425 15.3236 11.4925C15.2803 12.0941 15.2568 12.6909 15.432 13.2784C15.484 13.4524 15.5014 13.6324 15.4898 13.8142C15.4827 13.9247 15.46 14.0306 15.4003 14.1256C15.3118 14.2666 15.1897 14.3586 15.018 14.348C14.836 14.3367 14.7205 14.225 14.6517 14.0623C14.5715 13.8727 14.5604 13.6703 14.5553 13.4693C14.5483 13.197 14.5536 12.9244 14.5536 12.6521C14.5369 12.6521 14.5205 12.6521 14.5042 12.6521Z" fill="black"/>
<path d="M12.4469 1C12.5886 1.18785 12.6688 1.37317 12.7613 1.54917C13.1007 2.19567 13.4381 2.84317 13.7339 3.51136C14.0455 4.21534 14.3216 4.93093 14.4419 5.69619C14.5521 6.39589 14.5145 7.07718 14.163 7.71385C13.9159 8.16165 13.5594 8.49322 13.0969 8.71082C13.0682 8.72444 13.0334 8.75192 13.0039 8.72671C12.9731 8.70049 13.0074 8.6725 13.0213 8.65031C13.4464 7.97683 13.3498 7.31773 12.9673 6.66669C12.8017 6.38479 12.6169 6.11374 12.492 5.80864C12.4378 5.67627 12.4101 5.53834 12.3965 5.40093C12.3513 5.39059 12.3438 5.42034 12.3327 5.44001C12.0551 5.93875 11.7754 6.43623 11.6083 6.98717C11.4643 7.46195 11.4194 7.93271 11.635 8.40018C11.6741 8.48465 11.72 8.56357 11.7747 8.63846C11.7949 8.66594 11.8453 8.69166 11.8115 8.73175C11.7865 8.76125 11.748 8.731 11.7192 8.71763C11.3864 8.56483 11.0931 8.35555 10.8647 8.06887C10.3165 7.38076 10.1642 6.60063 10.3357 5.74485C10.4729 5.06053 10.8012 4.46396 11.1622 3.87999C11.4446 3.42336 11.747 2.97908 12.0142 2.51261C12.2674 2.0706 12.4308 1.60716 12.4318 1.09329C12.4318 1.07337 12.4378 1.05345 12.4469 1Z" fill="black"/>
</svg>
