<svg width="32" height="32" viewBox="0 0 32 32" fill="none" xmlns="http://www.w3.org/2000/svg">
<path d="M27.818 18.7115C27.6976 19.03 27.5851 19.3511 27.4562 19.6657C26.8793 21.0764 26.0637 22.3331 25.0151 23.4404C23.9213 24.5962 22.6449 25.4969 21.2164 26.1891C20.7757 26.4027 20.3311 26.6078 19.8947 26.8291C19.086 27.2392 18.412 27.8037 17.9314 28.583C17.5821 29.1498 17.3665 29.7662 17.2493 30.4189C17.2346 30.4998 17.2222 30.581 17.1746 30.6654C17.1626 30.6224 17.1464 30.5799 17.1394 30.5358C17.0408 29.9252 16.843 29.3526 16.5184 28.8225C16.1002 28.1396 15.5074 27.6633 14.7955 27.3209C14.3172 27.0906 13.8073 26.9479 13.3012 26.7985C11.8104 26.3578 10.4275 25.7008 9.18282 24.7633C8.18806 24.0142 7.3202 23.1398 6.58737 22.1315C5.58564 20.7529 4.90234 19.2292 4.50537 17.5751C4.34131 16.8911 4.25735 16.1946 4.20821 15.4931C4.15869 14.7905 4.18268 14.0894 4.25232 13.3902C4.32467 12.6644 4.47828 11.9536 4.67484 11.2514C5.14494 9.57251 5.92923 8.0554 7.01879 6.69616C7.65914 5.89717 8.40086 5.20459 9.22306 4.59558C10.7355 3.47545 12.4271 2.76623 14.2642 2.39363C15.5442 2.134 16.8322 2.09763 18.128 2.27175C19.2261 2.41916 20.2874 2.69658 21.3104 3.12103C21.9422 3.38336 22.5481 3.69677 23.1328 4.05157C23.1599 4.06782 23.1842 4.08833 23.2253 4.11812C23.1475 4.14675 23.1049 4.09955 23.0628 4.07866C22.0177 3.56018 20.9092 3.25723 19.7538 3.13303C18.4058 2.98832 17.0767 3.11097 15.7763 3.49634C14.5215 3.86817 13.372 4.44855 12.3409 5.25876C11.3581 6.03066 10.5363 6.94611 9.88044 8.00975C9.10621 9.26569 8.60438 10.6234 8.39699 12.0832C8.20276 13.451 8.28556 14.8056 8.63533 16.1451C9.02999 17.6568 9.69742 19.0303 10.6821 20.2449C11.6699 21.4641 12.8601 22.4321 14.282 23.1069C14.4739 23.1978 14.672 23.2768 14.8616 23.372C15.2296 23.5565 15.5407 23.8142 15.7895 24.1427C16.1547 24.6244 16.3571 25.1808 16.4967 25.76C16.5823 26.116 16.6372 26.4797 16.7061 26.8395C16.7119 26.8693 16.7196 26.8983 16.7564 26.9312C16.7614 26.8921 16.7711 26.8531 16.7711 26.8144C16.7703 26.2216 16.7718 25.6292 16.7649 25.0365C16.7602 24.6476 16.6976 24.2654 16.566 23.8993C16.3799 23.382 16.0646 22.9587 15.6103 22.6434C15.3341 22.4515 15.0744 22.2414 14.8578 21.9821C14.8334 21.9531 14.8109 21.9222 14.7908 21.8959C14.7958 21.8815 14.7974 21.8754 14.8005 21.8699C14.8036 21.8649 14.8082 21.8572 14.8121 21.8572C16.4867 21.8529 18.1617 21.849 19.8362 21.8456C19.866 21.8456 19.8958 21.8525 19.9573 21.8603C19.8633 21.9953 19.7724 22.1005 19.6672 22.1903C19.4756 22.3528 19.2814 22.5122 19.0825 22.6654C18.4758 23.1317 18.1218 23.7426 18.0053 24.4983C17.9372 24.9413 17.9771 25.3859 17.9639 25.8293C17.9605 25.95 17.9636 26.0711 17.9988 26.1972C18.0127 26.1524 18.0309 26.1082 18.0398 26.0626C18.1071 25.7202 18.21 25.3894 18.3578 25.0725C18.5083 24.7502 18.7146 24.4762 19.0167 24.282C19.1924 24.169 19.3824 24.0916 19.5936 24.08C21.1765 23.993 22.6395 23.5136 23.9987 22.7123C25.0283 22.1052 25.9372 21.3503 26.6824 20.4097C27.0751 19.9141 27.428 19.3913 27.7069 18.8214C27.729 18.7769 27.7534 18.7336 27.7766 18.6895C27.7905 18.6968 27.804 18.7042 27.818 18.7115Z" fill="white"/>
<path d="M17.7001 20.6852C17.6324 20.1226 17.6092 19.6122 17.6355 19.0988C17.6762 18.313 17.8472 17.5527 18.0476 16.7951C18.2275 16.1157 18.3339 15.4238 18.3316 14.7185C18.3312 14.6574 18.3212 14.5962 18.3126 14.5022C18.2662 14.5448 18.2399 14.5614 18.224 14.585C17.8905 15.0772 17.5465 15.5628 17.2281 16.065C16.3893 17.3875 16.2771 18.7897 16.7986 20.2545C16.8555 20.4147 16.9139 20.5745 16.9708 20.7347C16.9724 20.7393 16.9627 20.7478 16.9507 20.766C16.912 20.7389 16.8706 20.7157 16.8362 20.6848C15.9729 19.9094 15.2966 18.9967 14.9058 17.9009C14.4787 16.703 14.4705 15.4904 14.9039 14.2848C15.1229 13.6757 15.4417 13.1182 15.7756 12.5665C16.1084 12.0163 16.4454 11.4661 16.7371 10.8938C17.3864 9.61968 17.5442 8.25928 17.3709 6.85128C17.3361 6.56922 17.2974 6.28793 17.2556 5.96872C17.3086 6.01708 17.3461 6.03914 17.3666 6.07203C18.3916 7.70947 19.261 9.42119 19.7524 11.2989C20.1548 12.8357 20.241 14.3861 19.7818 15.9323C19.598 16.5513 19.3353 17.1394 19.0207 17.7024C18.5069 18.6221 18.0341 19.5585 17.7702 20.5861C17.7648 20.6066 17.7454 20.6225 17.7001 20.6852Z" fill="#FACC15"/>
</svg>
