<svg width="99" height="32" viewBox="0 0 99 32" fill="none" xmlns="http://www.w3.org/2000/svg">
<path d="M27.818 18.7115C27.6976 19.03 27.5851 19.3511 27.4562 19.6657C26.8793 21.0764 26.0637 22.3331 25.0151 23.4404C23.9213 24.5962 22.6449 25.4969 21.2164 26.1891C20.7757 26.4027 20.3311 26.6078 19.8947 26.8291C19.086 27.2392 18.412 27.8037 17.9314 28.583C17.5821 29.1498 17.3665 29.7662 17.2493 30.4189C17.2346 30.4998 17.2222 30.581 17.1746 30.6654C17.1626 30.6224 17.1464 30.5799 17.1394 30.5358C17.0408 29.9252 16.843 29.3526 16.5184 28.8225C16.1002 28.1396 15.5074 27.6633 14.7955 27.3209C14.3172 27.0906 13.8073 26.9479 13.3012 26.7985C11.8104 26.3578 10.4275 25.7008 9.18282 24.7633C8.18806 24.0142 7.3202 23.1398 6.58737 22.1315C5.58564 20.7529 4.90234 19.2292 4.50537 17.5751C4.34131 16.8911 4.25735 16.1946 4.20821 15.4931C4.15869 14.7905 4.18268 14.0894 4.25232 13.3902C4.32467 12.6644 4.47828 11.9536 4.67484 11.2514C5.14494 9.57251 5.92923 8.0554 7.01879 6.69616C7.65914 5.89717 8.40086 5.20459 9.22306 4.59558C10.7355 3.47545 12.4271 2.76623 14.2642 2.39363C15.5442 2.134 16.8322 2.09763 18.128 2.27175C19.2261 2.41916 20.2874 2.69658 21.3104 3.12103C21.9422 3.38336 22.5481 3.69677 23.1328 4.05157C23.1599 4.06782 23.1842 4.08833 23.2253 4.11812C23.1475 4.14675 23.1049 4.09955 23.0628 4.07866C22.0177 3.56018 20.9092 3.25723 19.7538 3.13303C18.4058 2.98832 17.0767 3.11097 15.7763 3.49634C14.5215 3.86817 13.372 4.44855 12.3409 5.25876C11.3581 6.03066 10.5363 6.94611 9.88044 8.00975C9.10621 9.26569 8.60438 10.6234 8.39699 12.0832C8.20276 13.451 8.28556 14.8056 8.63533 16.1451C9.02999 17.6568 9.69742 19.0303 10.6821 20.2449C11.6699 21.4641 12.8601 22.4321 14.282 23.1069C14.4739 23.1978 14.672 23.2768 14.8616 23.372C15.2296 23.5565 15.5407 23.8142 15.7895 24.1427C16.1547 24.6244 16.3571 25.1808 16.4967 25.76C16.5823 26.116 16.6372 26.4797 16.7061 26.8395C16.7119 26.8693 16.7196 26.8983 16.7564 26.9312C16.7614 26.8921 16.7711 26.8531 16.7711 26.8144C16.7703 26.2216 16.7718 25.6292 16.7649 25.0365C16.7602 24.6476 16.6976 24.2654 16.566 23.8993C16.3799 23.382 16.0646 22.9587 15.6103 22.6434C15.3341 22.4515 15.0744 22.2414 14.8578 21.9821C14.8334 21.9531 14.8109 21.9222 14.7908 21.8959C14.7958 21.8815 14.7974 21.8754 14.8005 21.8699C14.8036 21.8649 14.8082 21.8572 14.8121 21.8572C16.4867 21.8529 18.1617 21.849 19.8362 21.8456C19.866 21.8456 19.8958 21.8525 19.9573 21.8603C19.8633 21.9953 19.7724 22.1005 19.6672 22.1903C19.4756 22.3528 19.2814 22.5122 19.0825 22.6654C18.4758 23.1317 18.1218 23.7426 18.0053 24.4983C17.9372 24.9413 17.9771 25.3859 17.9639 25.8293C17.9605 25.95 17.9636 26.0711 17.9988 26.1972C18.0127 26.1524 18.0309 26.1082 18.0398 26.0626C18.1071 25.7202 18.21 25.3894 18.3578 25.0725C18.5083 24.7502 18.7146 24.4762 19.0167 24.282C19.1924 24.169 19.3824 24.0916 19.5936 24.08C21.1765 23.993 22.6395 23.5136 23.9987 22.7123C25.0283 22.1052 25.9372 21.3503 26.6824 20.4097C27.0751 19.9141 27.428 19.3913 27.7069 18.8214C27.729 18.7769 27.7534 18.7336 27.7766 18.6895C27.7905 18.6968 27.804 18.7042 27.818 18.7115Z" fill="white"/>
<path d="M17.7 20.6852C17.6323 20.1226 17.6091 19.6122 17.6354 19.0988C17.676 18.313 17.8471 17.5527 18.0475 16.7951C18.2274 16.1157 18.3338 15.4238 18.3315 14.7185C18.3311 14.6574 18.321 14.5962 18.3125 14.5022C18.2661 14.5448 18.2398 14.5614 18.2239 14.585C17.8904 15.0772 17.5464 15.5628 17.228 16.065C16.3891 17.3875 16.2769 18.7897 16.7985 20.2545C16.8554 20.4147 16.9138 20.5745 16.9707 20.7347C16.9722 20.7393 16.9626 20.7478 16.9506 20.766C16.9119 20.7389 16.8705 20.7157 16.836 20.6848C15.9728 19.9094 15.2965 18.9967 14.9057 17.9009C14.4785 16.703 14.4704 15.4904 14.9038 14.2848C15.1228 13.6757 15.4416 13.1182 15.7755 12.5665C16.1082 12.0163 16.4452 11.4661 16.737 10.8938C17.3862 9.61968 17.5441 8.25928 17.3708 6.85128C17.3359 6.56922 17.2972 6.28793 17.2555 5.96872C17.3085 6.01708 17.346 6.03914 17.3665 6.07203C18.3914 7.70947 19.2609 9.42119 19.7522 11.2989C20.1546 12.8357 20.2409 14.3861 19.7816 15.9323C19.5979 16.5513 19.3351 17.1394 19.0206 17.7024C18.5068 18.6221 18.0339 19.5585 17.7701 20.5861C17.7646 20.6066 17.7453 20.6225 17.7 20.6852Z" fill="#FACC15"/>
<path d="M40 12.2652C40.6014 12.2652 41.1135 12.3549 41.5359 12.534C41.971 12.7132 42.3039 13.0334 42.5343 13.4941C42.7647 13.9421 42.8804 14.5631 42.8804 15.3566V19.7918L43.5906 20.0801V20.9824C43.5906 20.9824 43.4882 21.0019 43.2835 21.0402C43.0915 21.0786 42.8542 21.1167 42.5726 21.1551C42.2911 21.2063 42.035 21.2511 41.8046 21.2895C41.5871 21.3278 41.4527 21.3473 41.4015 21.3473C41.3631 21.3472 41.2801 21.2956 41.1523 21.1934C41.0243 21.1038 40.9026 21.0015 40.7875 20.8863C40.6851 20.7711 40.6335 20.6943 40.6335 20.6559V15.3566C40.6335 14.8959 40.5693 14.5697 40.4414 14.3777C40.3262 14.1729 40.1918 14.0513 40.0382 14.0129C39.8848 13.9745 39.7697 13.9551 39.6929 13.9551C39.6417 13.9551 39.5328 13.9872 39.3664 14.0512C39.2 14.1152 39.0081 14.1921 38.7906 14.2816C38.5858 14.3712 38.3805 14.4667 38.1757 14.5691V19.7918L38.8867 20.0801V20.9824C38.8867 20.9824 38.7837 21.0018 38.5789 21.0402C38.3869 21.0786 38.1501 21.1167 37.8687 21.1551C37.6 21.2063 37.3506 21.2511 37.1203 21.2895C36.8899 21.3279 36.7488 21.3473 36.6976 21.3473C36.6464 21.3473 36.5635 21.2957 36.4484 21.1934C36.3332 21.1038 36.2175 21.0015 36.1023 20.8863C35.9871 20.7712 35.9296 20.6943 35.9296 20.6559V13.8012L35.2 13.5137V12.6113C35.2 12.6113 35.3023 12.5919 35.507 12.5535C35.7118 12.5151 35.9491 12.4763 36.2179 12.4379C36.4994 12.3995 36.7556 12.3614 36.9859 12.3231C37.2285 12.2848 37.3818 12.2653 37.446 12.2652C37.4844 12.2652 37.5554 12.3167 37.6578 12.4191C37.7601 12.5087 37.8557 12.6111 37.9453 12.7262C38.0476 12.8413 38.0991 12.9182 38.0992 12.9566V13.5707C38.2655 13.4427 38.4515 13.3083 38.6562 13.1676C38.8609 13.0141 39.0596 12.8737 39.2515 12.7457C39.4435 12.6049 39.61 12.4892 39.7507 12.3996C39.8912 12.3102 39.9743 12.2653 40 12.2652Z" fill="white"/>
<path fill-rule="evenodd" clip-rule="evenodd" d="M48.3757 12.2652C49.7581 12.2652 50.7947 12.6242 51.4859 13.341C52.1899 14.045 52.5421 15.0495 52.5421 16.3551C52.5421 16.9951 52.4906 17.5839 52.3882 18.1215C52.2987 18.6589 52.1964 19.0748 52.0812 19.3691C51.9788 19.5099 51.787 19.6898 51.5054 19.9074C51.2239 20.125 50.9103 20.349 50.5648 20.5793C50.2193 20.7968 49.899 20.982 49.6046 21.1356C49.3102 21.2764 49.105 21.3473 48.9898 21.3473C47.6076 21.3472 46.5514 21.0144 45.8218 20.3488C45.0923 19.6705 44.7281 18.6143 44.7281 17.1809C44.7281 16.6049 44.7729 16.0481 44.8625 15.5106C44.9648 14.973 45.0798 14.5759 45.2078 14.3199C45.323 14.1663 45.5215 13.9745 45.8031 13.7441C46.0975 13.5009 46.4176 13.2703 46.7632 13.0527C47.1216 12.8352 47.4478 12.6493 47.7421 12.4957C48.0365 12.3421 48.2477 12.2652 48.3757 12.2652ZM48.2992 13.5137C48.1968 13.5137 48.0938 13.5264 47.9914 13.552C47.8891 13.5648 47.7805 13.5902 47.6656 13.6285C47.512 13.7053 47.3777 14.0322 47.2625 14.6082C47.1601 15.1842 47.1085 15.9523 47.1085 16.9121C47.1086 17.7696 47.2048 18.4354 47.3968 18.909C47.6016 19.3696 47.8509 19.6833 48.1453 19.8496C48.4524 20.016 48.7532 20.0988 49.0476 20.0988C49.086 20.086 49.1696 20.0539 49.2976 20.0027C49.4382 19.9388 49.5662 19.8752 49.6812 19.8113L49.8734 19.7152C49.9374 19.4209 50.0016 19.0304 50.0656 18.5441C50.1296 18.0577 50.1617 17.4174 50.1617 16.6238C50.1617 16.0351 50.0974 15.5104 49.9695 15.0496C49.8415 14.576 49.6362 14.2044 49.3546 13.9356C49.0859 13.6542 48.7341 13.5137 48.2992 13.5137Z" fill="white"/>
<path d="M57.3171 12.2652C57.6371 12.2652 58.0088 12.3041 58.4312 12.3809C58.8534 12.4449 59.25 12.5405 59.621 12.6684L59.564 15.3184H58.2007L57.8929 13.8973C57.765 13.8333 57.605 13.7698 57.4132 13.7059C57.2213 13.6419 57.0421 13.6098 56.8757 13.6098C56.8374 13.6098 56.7925 13.6157 56.7414 13.6285C56.703 13.6413 56.6641 13.6607 56.6257 13.6863C56.5234 13.7632 56.4337 13.9552 56.357 14.2621C56.2802 14.5565 56.2227 14.9342 56.1843 15.3949C56.1459 15.8429 56.1265 16.3422 56.1265 16.8926C56.1265 17.5069 56.1907 18.019 56.3187 18.4285C56.4467 18.8381 56.6131 19.1456 56.8179 19.3504C57.0227 19.5424 57.234 19.6379 57.4515 19.6379H59.621V20.6176C59.4163 20.6816 59.1796 20.7585 58.9109 20.8481C58.6421 20.9377 58.3667 21.0205 58.0851 21.0973C57.8035 21.1613 57.5475 21.2187 57.3171 21.2699C57.0867 21.3211 56.9076 21.3473 56.7796 21.3473C56.242 21.3473 55.7428 21.1935 55.282 20.8863C54.8212 20.5791 54.4503 20.1246 54.1687 19.5231C53.8999 18.9087 53.7656 18.1467 53.7656 17.2379C53.7656 16.6108 53.8104 16.0285 53.9 15.491C54.0023 14.9407 54.1173 14.5309 54.2453 14.2621C54.3605 14.1086 54.5591 13.9234 54.8406 13.7059C55.1221 13.4883 55.429 13.2703 55.7617 13.0527C56.0945 12.8223 56.4019 12.6365 56.6835 12.4957C56.9779 12.3421 57.1891 12.2653 57.3171 12.2652Z" fill="white"/>
<path d="M62.8523 10.6527C62.9418 10.6527 63.0637 10.6849 63.2171 10.7488C63.3707 10.8 63.5312 10.8575 63.6976 10.9215V12.477H65.5789V13.7629H63.6976V18.8895C63.6976 19.2349 63.7297 19.4716 63.7937 19.5996C63.8705 19.7148 63.9854 19.773 64.139 19.7731L65.7906 19.8496V20.9824C65.5602 21.0208 65.2907 21.0656 64.9835 21.1168C64.6894 21.1552 64.4016 21.1873 64.1203 21.2129C63.8387 21.2513 63.5819 21.2834 63.3515 21.309C63.1343 21.3345 62.9937 21.3473 62.9296 21.3473C62.8145 21.3473 62.6733 21.2898 62.507 21.1746C62.3534 21.0594 62.1937 20.9116 62.0273 20.7324C61.8609 20.5532 61.7198 20.3741 61.6046 20.1949C61.5023 20.0031 61.4508 19.8432 61.4507 19.7152V13.6863H60.1453V12.8988L61.4507 12.3231L62.8523 10.6527Z" fill="white"/>
<path d="M73.2914 12.2652C73.3298 12.2655 73.4063 12.3171 73.521 12.4191C73.649 12.5087 73.7708 12.6111 73.8859 12.7262C74.0011 12.8414 74.0593 12.925 74.0593 12.9762V19.8113L74.7695 20.0988V21.0012C74.7695 21.0012 74.6671 21.0206 74.4625 21.059C74.2577 21.0974 74.0143 21.1362 73.7328 21.1746C73.464 21.2258 73.2079 21.2639 72.9648 21.2895C72.7344 21.3279 72.5933 21.3473 72.5421 21.3473C72.5037 21.3472 72.4268 21.2957 72.3117 21.1934C72.2094 21.1038 72.1137 21.0014 72.0242 20.8863C71.9346 20.7711 71.8898 20.6943 71.8898 20.6559V20.0418C71.7362 20.1698 71.5563 20.3101 71.3515 20.4637C71.1468 20.6044 70.9489 20.7456 70.757 20.8863C70.5778 21.0143 70.4173 21.1233 70.2765 21.2129C70.1363 21.3021 70.0532 21.347 70.0273 21.3473C69.4257 21.3473 68.907 21.2577 68.4718 21.0785C68.0495 20.8865 67.7233 20.5663 67.4929 20.1184C67.2753 19.6704 67.1664 19.056 67.1664 18.2754V13.8207L66.4562 13.5324V12.6301C66.4633 12.6288 66.5658 12.6101 66.7632 12.5731C66.968 12.5347 67.2046 12.4891 67.4734 12.4379C67.7422 12.3867 67.9855 12.3487 68.2031 12.3231C68.4334 12.2847 68.5745 12.2652 68.6257 12.2652C68.677 12.2654 68.7667 12.3169 68.8945 12.4191C69.0224 12.5087 69.1375 12.6111 69.2398 12.7262C69.355 12.8414 69.4125 12.925 69.4125 12.9762V18.2559C69.4125 18.7295 69.4699 19.069 69.5851 19.2738C69.7131 19.4658 69.8482 19.5808 69.989 19.6191C70.1424 19.6575 70.2576 19.677 70.3343 19.677C70.3983 19.6769 70.5134 19.6448 70.6796 19.5809C70.8588 19.5041 71.0514 19.4145 71.2562 19.3121C71.4609 19.2098 71.6461 19.1261 71.8125 19.0621V13.8207L71.1023 13.5324V12.6301C71.1058 12.6294 71.2022 12.6107 71.3906 12.5731C71.5953 12.5347 71.832 12.4891 72.1007 12.4379C72.3822 12.3867 72.6317 12.3486 72.8492 12.3231C73.0796 12.2847 73.2274 12.2652 73.2914 12.2652Z" fill="white"/>
<path d="M80.2296 12.2652C80.4215 12.2653 80.6517 12.2974 80.9203 12.3613C81.2018 12.4253 81.4198 12.4828 81.5734 12.534C81.599 12.598 81.6311 12.7137 81.6695 12.8801C81.7078 13.0335 81.7273 13.1614 81.7273 13.2637C81.7273 13.3277 81.6952 13.4367 81.6312 13.5902C81.58 13.731 81.5091 13.8848 81.4195 14.0512C81.3428 14.2174 81.2665 14.3647 81.1898 14.4926C81.126 14.6074 81.0811 14.6717 81.0554 14.6848C80.9914 14.6592 80.8884 14.6203 80.7476 14.5691C80.6198 14.5053 80.4791 14.4544 80.3257 14.416C80.1849 14.3648 80.0566 14.3395 79.9414 14.3395C79.9029 14.3395 79.8387 14.3581 79.7492 14.3965C79.6596 14.4221 79.5573 14.461 79.4421 14.5121C79.3271 14.5505 79.2119 14.6013 79.0968 14.6652C78.9816 14.7164 78.8659 14.7739 78.7507 14.8379V19.677L79.8648 19.984V20.9629C79.8648 20.9629 79.7878 20.9756 79.6343 21.0012C79.4807 21.0268 79.2822 21.0589 79.039 21.0973C78.7959 21.1357 78.5465 21.1745 78.2906 21.2129C78.0346 21.2513 77.8099 21.2834 77.6179 21.309C77.4389 21.3346 77.3238 21.3473 77.2726 21.3473C77.2214 21.3473 77.1385 21.2957 77.0234 21.1934C76.9082 21.1038 76.7925 21.0015 76.6773 20.8863C76.5621 20.7712 76.5046 20.6943 76.5046 20.6559V13.7629L75.775 13.5137V12.6113C75.775 12.6113 75.8712 12.5919 76.0632 12.5535C76.268 12.5151 76.5047 12.4763 76.7734 12.4379C77.0422 12.3867 77.2855 12.3487 77.5031 12.3231C77.7334 12.2847 77.8745 12.2652 77.9257 12.2652C77.977 12.2654 78.06 12.317 78.175 12.4191C78.3028 12.5215 78.4179 12.6366 78.5203 12.7645C78.6355 12.8925 78.6937 12.9761 78.6937 13.0145L78.6742 13.8012C78.8405 13.622 79.007 13.4428 79.1734 13.2637C79.3398 13.0845 79.4936 12.918 79.6343 12.7645C79.7878 12.611 79.9156 12.4892 80.0179 12.3996C80.1203 12.31 80.1912 12.2652 80.2296 12.2652Z" fill="white"/>
<path d="M87.025 12.2652C87.6264 12.2652 88.1385 12.3549 88.5609 12.534C88.996 12.7132 89.3289 13.0334 89.5593 13.4941C89.7897 13.9421 89.9054 14.5631 89.9054 15.3566V19.7918L90.6156 20.0801V20.9824C90.6156 20.9824 90.5132 21.0019 90.3085 21.0402C90.1165 21.0786 89.8792 21.1167 89.5976 21.1551C89.3161 21.2063 89.06 21.2511 88.8296 21.2895C88.6121 21.3278 88.4777 21.3473 88.4265 21.3473C88.3881 21.3472 88.3051 21.2956 88.1773 21.1934C88.0493 21.1038 87.9276 21.0015 87.8125 20.8863C87.7101 20.7711 87.6585 20.6943 87.6585 20.6559V15.3566C87.6585 14.8959 87.5943 14.5697 87.4664 14.3777C87.3512 14.1729 87.2168 14.0513 87.0632 14.0129C86.9098 13.9745 86.7947 13.9551 86.7179 13.9551C86.6667 13.9551 86.5578 13.9872 86.3914 14.0512C86.225 14.1152 86.0331 14.1921 85.8156 14.2816C85.6108 14.3712 85.4055 14.4667 85.2007 14.5691V19.7918L85.9117 20.0801V20.9824C85.9117 20.9824 85.8087 21.0018 85.6039 21.0402C85.4119 21.0786 85.1751 21.1167 84.8937 21.1551C84.625 21.2063 84.3756 21.2511 84.1453 21.2895C83.9149 21.3279 83.7738 21.3473 83.7226 21.3473C83.6714 21.3473 83.5885 21.2957 83.4734 21.1934C83.3582 21.1038 83.2425 21.0015 83.1273 20.8863C83.0121 20.7712 82.9546 20.6943 82.9546 20.6559V13.8012L82.225 13.5137V12.6113C82.225 12.6113 82.3273 12.5919 82.532 12.5535C82.7368 12.5151 82.9741 12.4763 83.2429 12.4379C83.5244 12.3995 83.7806 12.3614 84.0109 12.3231C84.2535 12.2848 84.4068 12.2653 84.471 12.2652C84.5094 12.2652 84.5804 12.3167 84.6828 12.4191C84.7851 12.5087 84.8807 12.6111 84.9703 12.7262C85.0726 12.8413 85.1241 12.9182 85.1242 12.9566V13.5707C85.2905 13.4427 85.4765 13.3083 85.6812 13.1676C85.8859 13.0141 86.0846 12.8737 86.2765 12.7457C86.4685 12.6049 86.635 12.4892 86.7757 12.3996C86.9162 12.3102 86.9993 12.2653 87.025 12.2652Z" fill="white"/>
<path fill-rule="evenodd" clip-rule="evenodd" d="M95.4007 12.2652C96.1175 12.2652 96.7131 12.3869 97.1867 12.6301C97.673 12.8733 98.0313 13.3279 98.2617 13.9934C98.5049 14.6461 98.6265 15.5933 98.6265 16.8348L94.1023 17.309C94.1264 17.8501 94.2135 18.2874 94.364 18.6207C94.5432 19.0174 94.7544 19.2988 94.9976 19.4652C95.2408 19.6188 95.4647 19.6957 95.6695 19.6957H96.0343C96.2391 19.6829 96.4824 19.6702 96.764 19.6574C97.0584 19.6446 97.3465 19.6319 97.6281 19.6191C97.9096 19.6064 98.1463 19.5937 98.3382 19.5809V20.541C98.1335 20.6178 97.8712 20.7007 97.5515 20.7902C97.2444 20.8798 96.9241 20.9694 96.5914 21.059C96.2714 21.1358 95.9833 21.2 95.7273 21.2512C95.4715 21.3151 95.2922 21.3472 95.1898 21.3473C94.5626 21.3473 93.9864 21.1935 93.4617 20.8863C92.9497 20.5791 92.5332 20.1247 92.2132 19.5231C91.9061 18.9215 91.7531 18.1728 91.7531 17.277C91.7531 16.6498 91.7979 16.0609 91.8875 15.5106C91.9898 14.9602 92.1048 14.5504 92.2328 14.2816C92.348 14.128 92.5465 13.9422 92.8281 13.7246C93.1224 13.4942 93.4427 13.2703 93.7882 13.0527C94.1337 12.8224 94.4533 12.6365 94.7476 12.4957C95.042 12.3421 95.2599 12.2652 95.4007 12.2652ZM94.9781 13.5137C94.8631 13.5137 94.7545 13.5392 94.6523 13.5902C94.4859 13.6798 94.3508 14.0254 94.2484 14.627C94.1707 15.0832 94.1226 15.6463 94.1039 16.316L96.3609 15.9137C96.3737 15.1969 96.3028 14.6267 96.1492 14.2043C96.0083 13.7822 95.7269 13.558 95.3046 13.5324C95.2151 13.5196 95.106 13.5137 94.9781 13.5137Z" fill="white"/>
</svg>
